<svg xmlns="http://www.w3.org/2000/svg" viewBox="0 0 64 64" fill="#fff">
  <path fill="#d03f38" d="M0 0h64v64H0z"/>
  <path d="M39.1 17.7q-1.2 0-2.1.9l-9.9 9.9a3 3 0 0 0 0 4.2l3.5 3.5 1.4-1.4-3.5-3.5a1 1 0 0 1 0-1.4l9.9-9.9q.5-.4.7-.3.4 0 .7.3l4.2 4.2q.6.7 0 1.4l-5 5q.6.9.8 2.1l5.7-5.7a3 3 0 0 0 0-4.2l-4.2-4.2q-1.1-.9-2.2-.9"/>
  <path d="M35.5 32.7q.6.7 0 1.4L25.6 44q-.5.4-.7.3-.4 0-.7-.3L20 39.8a1 1 0 0 1 0-1.4l5-5q-.6-.9-.8-2.1L18.5 37a3 3 0 0 0 0 4.2l4.2 4.2a3 3 0 0 0 4.2 0l9.9-9.9a3 3 0 0 0 0-4.2l-3.5-3.5-1.3 1.4ZM52 46v-1h-3v-2l1.9-1.9.1-.3V38h-1v2.3l-.1.4-.9.8V41h-2v-1l-.9-.9-.3-.1h-1.6l-.3.1-.9.9v1h-2v1l-.9-.9-.1-.3V38h-1v3.3l.1.4 1.9 1.8V45h-3v1h3v1.5l-1.9 1.9-.1.3V52h1v-1.8l.1-.4.9-.8 1.9 1.9.3.1h3.6l.4-.1 1.6-1.6 1.1 1.1.1.4V52h1v-1.8l-.1-.4L49 48v-2Zm-8-5.6.4-.4h1.2l.4.4v.6h-2zm4 8.2L46.6 50h-3.2L42 48.6V42h2.5v6h1v-6H48Z"/>
</svg>
